<?xml version="1.0" encoding="UTF-8" standalone="no"?>
<!DOCTYPE svg PUBLIC "-//W3C//DTD SVG 1.1//EN" "http://www.w3.org/Graphics/SVG/1.1/DTD/svg11.dtd">
<svg width="100%" height="100%" viewBox="0 0 16 16" version="1.1" xmlns="http://www.w3.org/2000/svg" xmlns:xlink="http://www.w3.org/1999/xlink" xml:space="preserve" xmlns:serif="http://www.serif.com/" style="fill-rule:evenodd;clip-rule:evenodd;stroke-linejoin:round;stroke-miterlimit:2;">
    <g transform="matrix(1,0,0,1,-0.0135983,-0.00608091)">
        <g transform="matrix(0.002286,0,0,-0.002286,0,16)">
            <path d="M3298,6995C3297,6994 3253,6990 3201,6986C3150,6983 3105,6978 3101,6976C3098,6974 3061,6969 3021,6966C2980,6962 2943,6957 2940,6955C2937,6953 2916,6949 2894,6946C2843,6938 2813,6932 2792,6926C2783,6923 2759,6918 2740,6915C2644,6899 2316,6799 2213,6754C2195,6746 2165,6733 2146,6725C2127,6717 2109,6710 2106,6710C2097,6710 1832,6578 1774,6544C1647,6471 1496,6370 1386,6287C1319,6237 1263,6193 1260,6189C1257,6185 1235,6166 1210,6145C1139,6087 974,5924 884,5822C568,5467 331,5056 179,4599C153,4518 128,4441 126,4429C123,4416 114,4378 105,4345C97,4312 87,4269 84,4250C81,4231 77,4213 75,4210C70,4203 41,4036 34,3978C31,3954 27,3919 24,3900C12,3815 6,3691 6,3505C5,3187 18,3064 95,2690C97,2682 104,2655 111,2630C118,2605 124,2579 126,2572C135,2524 211,2302 257,2190C446,1724 715,1327 1080,975C1146,912 1181,880 1290,786C1323,758 1494,632 1545,598C1685,507 1743,472 1857,412C1972,352 2023,327 2155,270C2195,252 2257,229 2361,192C2546,125 2846,54 3025,35C3053,32 3081,27 3089,24C3163,-1 3729,-1 3910,25C3924,27 3958,31 3985,35C4028,41 4169,66 4265,85C4327,97 4489,143 4603,181C5394,443 6065,979 6497,1696C6558,1795 6654,1980 6705,2095C6803,2315 6914,2680 6944,2886C6948,2908 6953,2937 6955,2950C6958,2964 6968,3034 6977,3105C7001,3293 7000,3797 6975,3915C6973,3926 6968,3954 6966,3978C6925,4316 6801,4716 6631,5060C6175,5979 5330,6655 4330,6899C4209,6928 4022,6962 3910,6975C3880,6979 3842,6983 3825,6986C3790,6991 3303,7000 3298,6995ZM1624,6098C1683,6036 1870,5844 2039,5671C2207,5498 2382,5318 2428,5271C2569,5126 2763,4930 2766,4930C2768,4930 2795,4942 2827,4956C2888,4984 3110,5061 3110,5055C3110,5053 3124,5055 3142,5060C3172,5069 3194,5073 3310,5090C3382,5101 3630,5100 3700,5089C3730,5084 3769,5078 3785,5076C3891,5059 4028,5014 4211,4938C4239,4926 4242,4930 4675,5375C4734,5436 4911,5618 5069,5780C5228,5942 5387,6106 5423,6144L5489,6213L5532,6179C5736,6022 5969,5796 6113,5615C6404,5251 6621,4833 6737,4410C6774,4276 6809,4110 6825,3995C6828,3973 6833,3944 6835,3930C6838,3916 6842,3874 6845,3835C6848,3797 6853,3745 6856,3720C6863,3655 6863,3357 6855,3275C6837,3073 6831,3027 6804,2885C6791,2814 6768,2712 6754,2660C6741,2608 6727,2556 6725,2545C6703,2447 6588,2161 6500,1985C6333,1655 6151,1403 5885,1135C5744,993 5686,941 5557,841L5487,786L5317,961C5224,1057 5011,1275 4845,1445C4679,1616 4473,1826 4389,1913L4235,2071L4160,2037C4047,1985 3956,1956 3810,1925C3626,1886 3361,1886 3185,1925C3041,1956 2897,2004 2804,2050L2765,2069L2625,1925C2376,1670 1890,1172 1701,978C1600,875 1514,790 1510,790C1507,790 1495,798 1484,808C1474,817 1442,842 1415,863C1159,1059 818,1436 665,1692C660,1701 631,1748 602,1797C473,2011 325,2357 264,2587C255,2619 247,2652 244,2660C228,2716 172,3007 166,3060C163,3096 158,3141 155,3160C140,3285 133,3620 144,3720C146,3739 151,3793 155,3840C159,3886 163,3927 165,3930C166,3933 171,3962 175,3995C178,4027 183,4057 186,4061C188,4064 192,4092 196,4121C199,4151 204,4178 207,4183C209,4187 214,4203 216,4218C242,4368 333,4647 422,4850C550,5144 732,5434 945,5686C1059,5820 1284,6036 1424,6145C1445,6162 1472,6183 1484,6192C1496,6202 1507,6209 1510,6210C1513,6210 1564,6159 1624,6098Z" style="fill-rule:nonzero;" fill="currentColor"/>
        </g>
        <g transform="matrix(0.002286,0,0,-0.002286,0,16)">
            <path d="M1403,5507C1152,5247 935,4907 800,4565C741,4417 667,4170 654,4080C652,4066 648,4044 645,4030C618,3902 597,3681 597,3515C596,3421 609,3181 614,3171C616,3168 621,3136 624,3101C645,2904 739,2558 827,2360C872,2259 947,2109 977,2062C995,2033 1010,2007 1010,2004C1010,1997 1170,1757 1179,1750C1182,1747 1210,1714 1241,1675C1330,1565 1436,1450 1449,1450C1452,1450 1760,1756 2133,2129C2506,2503 2820,2816 2830,2825C2849,2842 2851,2841 2888,2808C3115,2603 3449,2526 3750,2610C3882,2647 4024,2726 4117,2813C4149,2843 4150,2843 4169,2826C4180,2816 4490,2507 4857,2139C5224,1770 5533,1465 5542,1460C5559,1450 5572,1461 5688,1589C5781,1691 5943,1918 6017,2050C6197,2369 6310,2687 6364,3020C6387,3167 6389,3180 6396,3291C6413,3544 6403,3720 6355,4035C6345,4099 6291,4307 6259,4405C6125,4808 5897,5191 5605,5498L5555,5551L4854,4850L4153,4150L4126,4175C3952,4336 3728,4421 3490,4415C3341,4411 3310,4406 3206,4371C3084,4329 2962,4258 2870,4173L2846,4151L2148,4848C1764,5231 1448,5546 1447,5547C1445,5548 1426,5530 1403,5507Z" style="fill-rule:nonzero;" fill="currentColor"/>
        </g>
    </g>
</svg>
