<?xml version="1.0" encoding="UTF-8" standalone="no"?>
<!DOCTYPE svg PUBLIC "-//W3C//DTD SVG 1.1//EN" "http://www.w3.org/Graphics/SVG/1.1/DTD/svg11.dtd">
<svg width="100%" height="100%" viewBox="0 0 173 172" version="1.1" xmlns="http://www.w3.org/2000/svg" xmlns:xlink="http://www.w3.org/1999/xlink" xml:space="preserve" xmlns:serif="http://www.serif.com/" style="fill-rule:evenodd;clip-rule:evenodd;stroke-linejoin:round;stroke-miterlimit:2;">
    <g transform="matrix(1,0,0,1,-23.3,-24)">
        <path d="M134.724,60.365L129.7,63.282L129.7,69.117L134.724,72.034L139.802,69.116L139.802,63.282L134.724,60.365Z" style=""  fill="currentColor"/>
        <path d="M139.157,74.994L142.869,71.227L140.087,69.611L135.008,72.529L135.008,78.362L140.087,81.28L143.517,79.289L139.157,74.994Z" style="" fill="currentColor"/>
        <path d="M145.396,60.366L140.373,63.282L140.373,69.117L143.283,70.807L150.418,63.566L150.418,63.282L145.396,60.366Z" style="" fill="currentColor"/>
        <path d="M129.415,69.611L124.392,72.528L124.392,78.363L129.415,81.28L134.438,78.363L134.438,72.528L129.415,69.611Z" style="" fill="currentColor"/>
        <path d="M124.106,60.366L119.084,63.282L119.084,69.117L124.106,72.034L129.129,69.117L129.129,63.282L124.106,60.366Z" style="" fill="currentColor"/>
        <path d="M113.49,60.366L108.468,63.282L108.468,69.117L113.49,72.034L118.513,69.117L118.513,63.282L113.49,60.366Z" style="" fill="currentColor"/>
        <path d="M113.49,78.857L113.011,79.135C113.434,79.185 113.854,79.244 114.27,79.311L113.49,78.857Z" style="" fill="currentColor"/>
        <path d="M123.821,72.528L118.799,69.611L113.776,72.528L113.776,78.363L115.964,79.633L115.96,79.633C117.332,79.936 118.665,80.334 119.958,80.828C119.882,80.799 119.806,80.769 119.729,80.741L123.822,78.364L123.822,72.528L123.821,72.528Z" style="" fill="currentColor"/>
        <path d="M150.703,51.175L145.681,54.037L145.681,59.871L150.703,62.787L151.831,62.132L155.726,58.18L155.726,54.037L150.703,51.175Z" style="" fill="currentColor"/>
        <path d="M182.551,32.684L177.528,35.6L177.528,40.433L184.392,33.753L182.551,32.684Z" style="" fill="currentColor"/>
        <path d="M163.429,163.159L166.342,166.172L166.342,164.819L163.429,163.159Z" style="" fill="currentColor"/>
        <path d="M182.551,51.175L177.528,54.037L177.528,59.871L178.193,60.257L185.561,52.89L182.551,51.175Z" style="" fill="currentColor"/>
        <path d="M175,157.7C169.937,150.77 166.138,143.333 163.604,135.387C163.657,135.553 163.709,135.717 163.763,135.882L161.604,137.136L161.604,142.972L166.626,145.888L167.567,145.342C167.65,145.514 167.733,145.685 167.817,145.857L166.911,146.382L166.911,152.218L171.934,155.134L172.844,154.606C172.949,154.765 173.055,154.922 173.161,155.082L172.219,155.629L172.219,161.463L177.241,164.325L180.041,162.729L175,157.7Z" style="" fill="currentColor"/>
        <path d="M145.681,151.549L145.681,152.219L147.293,153.155L145.681,151.549Z" style="" fill="currentColor"/>
        <path d="M157.737,153.715L159.54,155.54L157.05,158L157.769,157.305L161.034,160.683L161.034,155.629L157.737,153.715Z" style="" fill="currentColor"/>
        <path d="M164.581,53.033L161.319,51.175L156.297,54.037L156.297,57.981L157.888,59.548L157.901,59.535L158.597,60.247L157.902,59.533L164.581,53.033Z" style="" fill="currentColor"/>
        <path d="M158.808,42.894L161.319,44.352L166.342,41.436L166.342,35.6L166.202,35.519L166.62,35.102L166.627,35.106L171.65,32.19L171.65,30.085L172.173,29.564L158.808,42.894Z" style="" fill="currentColor"/>
        <path d="M186.188,34.796L178.68,42.104L182.551,44.352L187.573,41.436L187.573,35.6L186.188,34.796Z" style="" fill="currentColor"/>
        <path d="M171.936,32.684L166.912,35.6L166.912,41.436L171.936,44.352L175.817,42.098L176.958,40.988L176.958,35.6L171.936,32.684Z" style="" fill="currentColor"/>
        <path d="M113.205,72.528L108.183,69.611L103.161,72.528L103.161,78.363L104.608,79.203L104.606,79.203C106.063,79.001 107.561,78.899 109.101,78.899C110.106,78.899 111.092,78.944 112.062,79.029L112.058,79.029L113.206,78.362L113.206,72.528L113.205,72.528Z" style="" fill="currentColor"/>
        <path d="M71.026,97.292L66.004,100.209L66.004,106.044L71.026,108.961L76.049,106.044L76.049,100.209L71.026,97.292Z" style="" fill="currentColor"/>
        <path d="M65.718,106.539L60.639,109.457L60.639,115.29L65.718,118.208L70.741,115.291L70.741,109.456L65.718,106.539Z" style="" fill="currentColor"/>
        <path d="M71.026,115.785L66.004,118.702L66.004,124.535L71.026,127.397L76.049,124.535L76.049,118.702L71.026,115.785Z" style="" fill="currentColor"/>
        <path d="M79.5,114.5C79.3,113.334 79.167,112.15 79.1,110.95C79.067,110.283 79.05,109.617 79.05,108.95C79.05,108.494 79.069,108.075 79.083,107.648C79.079,107.807 79.074,107.966 79.071,108.127L76.336,106.539L71.313,109.456L71.313,115.291L76.336,118.207L79.856,116.164C79.857,116.17 79.858,116.175 79.86,116.181C79.728,115.625 79.599,115.069 79.5,114.5Z" style="" fill="currentColor"/>
        <path d="M65.718,125.029L60.639,127.893L60.639,133.725L65.718,136.643L70.741,133.726L70.741,127.892L65.718,125.029Z" style="" fill="currentColor"/>
        <path d="M81.174,97.564L76.62,100.209L76.62,106.044L79.087,107.477C79.093,107.306 79.091,107.117 79.1,106.95C79.1,106.883 79.117,106.816 79.15,106.75C79.342,103.487 80.02,100.421 81.18,97.551C81.178,97.556 81.176,97.56 81.174,97.564Z" style="" fill="currentColor"/>
        <path d="M71.026,134.221L66.004,137.137L66.004,142.973L69.161,144.806L74.729,139.022L76.049,140.294L76.049,137.137L71.026,134.221Z" style="" fill="currentColor"/>
        <path d="M65.718,88.102L60.639,90.965L60.639,96.797L65.718,99.715L70.741,96.798L70.741,90.964L65.718,88.102Z" style="" fill="currentColor"/>
        <path d="M60.354,78.857L55.331,81.774L55.331,85.336C55.324,85.315 55.317,85.293 55.31,85.272C55.608,86.223 55.887,87.181 56.148,88.146C56.14,88.118 56.133,88.09 56.126,88.062L60.355,90.472L65.434,87.608L65.434,81.776L60.354,78.857Z" style="" fill="currentColor"/>
        <path d="M139.802,137.138L134.724,134.22L129.7,137.137L129.7,142.973L134.724,145.89L138.07,143.967L136.979,142.88L139.802,140.048L139.802,137.138Z" style="" fill="currentColor"/>
        <path d="M76.335,125.03L71.312,127.892L71.312,133.726L76.335,136.643L81.357,133.726L81.357,127.892L76.335,125.03Z" style="" fill="currentColor"/>
        <path d="M102.875,60.366L97.852,63.282L97.852,69.117L102.875,72.034L107.897,69.117L107.897,63.282L102.875,60.366Z" style="" fill="currentColor"/>
        <path d="M60.068,78.363L60.068,72.528L55.045,69.611L50.023,72.528L50.023,72.586C49.924,72.398 49.824,72.212 49.724,72.025L49.738,72.033L54.76,69.116L54.76,63.281L49.738,60.365L44.716,63.281L44.716,63.961C44.595,63.79 44.473,63.619 44.351,63.449C49.194,70.183 52.831,77.409 55.264,85.126C55.101,84.609 54.935,84.094 54.761,83.581L54.761,81.772L53.946,81.299C53.84,81.015 53.732,80.733 53.622,80.45L55.047,81.278L60.068,78.363Z" style="" fill="currentColor"/>
        <path d="M61.124,153.154L60.354,152.712L55.331,155.629L55.331,161.463L56.063,161.88L59.78,158.156L57.979,156.422L61.124,153.154Z" style="" fill="currentColor"/>
        <path d="M99.735,80.313C99.738,80.312 99.742,80.311 99.746,80.309C99.743,80.311 99.739,80.312 99.735,80.313Z" style="" fill="currentColor"/>
        <path d="M103.72,79.348L102.875,78.857L101.014,79.938C101.92,79.694 102.844,79.494 103.785,79.337C103.763,79.341 103.742,79.345 103.72,79.348Z" style="" fill="currentColor"/>
        <path d="M97.566,69.611L92.544,72.528L92.544,78.363L97.388,81.176C97.312,81.208 97.238,81.243 97.162,81.276C97.601,81.087 98.046,80.908 98.494,80.742L102.589,78.364L102.589,72.529L97.566,69.611Z" style="" fill="currentColor"/>
        <path d="M74.331,80.776L74.129,80.979L73.361,80.213L71.026,78.857L66.004,81.774L66.004,87.608L71.026,90.47L76.049,87.608L76.049,81.774L74.331,80.776Z" style="" fill="currentColor"/>
        <path d="M44.43,161.957L39.407,164.819L39.407,170.653L44.407,173.558L49.452,168.503L49.452,164.819L44.43,161.957Z" style="" fill="currentColor"/>
        <path d="M44.715,47.496L44.715,50.68L49.738,53.542L50.399,53.166L44.715,47.496Z" style="" fill="currentColor"/>
        <path d="M39.155,41.949L39.122,41.93L34.1,44.846L34.1,50.68L39.122,53.542L44.145,50.68L44.145,46.926L39.155,41.949Z" style="" fill="currentColor"/>
        <path d="M187.859,41.929L182.837,44.846L182.837,50.68L185.979,52.471L185.742,52.708L192.939,45.511L192.939,44.847L187.859,41.929Z" style="" fill="currentColor"/>
        <path d="M161.319,143.467L156.297,146.383L156.297,152.219L161.319,155.135L166.342,152.219L166.342,146.383L161.319,143.467Z" style="" fill="currentColor"/>
        <path d="M166.627,152.713L161.604,155.629L161.604,161.272L162.015,161.697L166.627,164.325L171.65,161.463L171.65,155.629L166.627,152.713Z" style="" fill="currentColor"/>
        <path d="M145.396,78.857L144.886,79.153L144.144,79.907L143.938,79.704L140.373,81.774L140.373,87.608L145.396,90.47L150.418,87.608L150.418,81.774L145.396,78.857Z" style="" fill="currentColor"/>
        <path d="M150.703,143.467L148.671,144.646L155.521,151.471L153.756,153.241L153.762,153.247L155.54,151.49L155.726,151.678L155.726,146.383L150.703,143.467Z" style="" fill="currentColor"/>
        <path d="M171.936,161.957L166.912,164.819L166.912,166.762L172.934,172.99L176.958,170.653L176.958,164.819L171.936,161.957Z" style="" fill="currentColor"/>
        <path d="M159.313,60.952L160.967,62.583L161.319,62.787L166.342,59.871L166.342,54.111L159.313,60.952Z" style="" fill="currentColor"/>
        <path d="M156.012,78.857L150.989,81.774L150.989,87.608L156.012,90.47L161.034,87.608L161.034,81.774L156.012,78.857Z" style="" fill="currentColor"/>
        <path d="M132.188,89.683C132.186,89.68 132.183,89.678 132.181,89.675C133.007,90.663 133.758,91.68 134.437,92.727L134.437,90.965L132.188,89.683Z" style="" fill="currentColor"/>
        <path d="M150.703,88.102L145.681,90.964L145.681,96.798L150.703,99.715L155.726,96.798L155.726,90.964L150.703,88.102Z" style="" fill="currentColor"/>
        <path d="M139.004,106.502L139.005,106.513L139.004,106.502Z" style="" fill="currentColor"/>
        <path d="M139.802,100.21L137.455,98.861C137.454,98.858 137.453,98.855 137.451,98.851C138.295,101.271 138.808,103.823 139.004,106.502L139.802,106.044L139.802,100.21ZM140.087,106.539L139.047,107.137C139.035,106.928 139.02,106.721 139.005,106.514C139.063,107.316 139.1,108.126 139.1,108.951C139.1,111.954 138.71,114.8 137.94,117.49C137.981,117.342 138.02,117.193 138.06,117.044L140.087,118.209L145.11,115.292L145.11,109.457L140.087,106.539Z" style="" fill="currentColor"/>
        <path d="M44.43,180.395L39.407,183.311L39.407,189.146L44.43,192.063L48.943,189.441L47.571,190.817L49.452,188.932L49.452,183.311L44.43,180.395Z" style="" fill="currentColor"/>
        <path d="M187.999,183.478C188.02,183.456 188.041,183.434 188.062,183.412C188.041,183.434 188.021,183.455 187.999,183.478Z" style="" fill="currentColor"/>
        <path d="M150.703,125.03L145.681,127.893L145.681,133.726L150.703,136.643L155.726,133.726L155.726,127.893L150.703,125.03Z" style="" fill="currentColor"/>
        <path d="M166.912,169.64L166.912,170.653L169.146,171.95L166.912,169.64Z" style="" fill="currentColor"/>
        <path d="M180.216,162.902L180.462,163.148L177.528,164.819L177.528,170.653L182.55,173.57L187.572,170.653L187.572,170.241L189.327,171.991L187.858,171.147L182.836,174.064L182.836,179.899L187.859,182.816L189.454,181.9C190.654,180.586 191.815,179.258 192.938,177.919L192.938,175.593L180.216,162.902Z" style="" fill="currentColor"/>
        <path d="M188.145,183.311L188.145,183.322C188.153,183.314 188.16,183.306 188.166,183.299L188.145,183.311Z" style="" fill="currentColor"/>
        <path d="M63.821,70.701L60.639,72.529L60.639,78.362L65.718,81.28L70.741,78.363L70.741,77.601L63.821,70.701Z" style="" fill="currentColor"/>
        <path d="M65.718,51.174L60.639,54.038L60.639,59.871L60.789,59.957L61.871,58.872L65.769,62.758L70.741,59.871L70.741,54.037L65.718,51.174Z" style="" fill="currentColor"/>
        <path d="M31.319,34.132L29.573,35.146C29.309,35.429 29.051,35.715 28.791,36L28.791,41.436L33.814,44.353L38.712,41.508L31.319,34.132Z" style="" fill="currentColor"/>
        <path d="M44.715,192.557L44.715,193.681L47.379,191.01L44.715,192.557Z" style="" fill="currentColor"/>
        <path d="M156.012,134.221L150.989,137.137L150.989,142.973L156.012,145.889L161.034,142.973L161.034,137.137L156.012,134.221Z" style="" fill="currentColor"/>
        <path d="M167.349,53.131L171.65,50.68L171.65,48.944L167.349,53.131Z" style="" fill="currentColor"/>
        <path d="M172.221,44.846L172.221,45.599L174.137,43.733L172.221,44.846Z" style="" fill="currentColor"/>
        <path d="M160.711,63.094L153.397,70.516L156.012,72.034L161.034,69.117L161.034,63.282L160.711,63.094Z" style="" fill="currentColor"/>
        <path d="M178.255,42.517L172.221,48.39L172.221,50.68L177.243,53.542L182.266,50.68L182.266,44.846L178.255,42.517Z" style="" fill="currentColor"/>
        <path d="M171.936,51.175L166.912,54.037L166.912,59.871L171.936,62.787L176.958,59.871L176.958,54.037L171.936,51.175Z" style="" fill="currentColor"/>
        <path d="M166.627,41.93L161.604,44.847L161.604,50.68L165.007,52.619L171.65,46.153L171.65,44.846L166.627,41.93Z" style="" fill="currentColor"/>
        <path d="M134.724,78.857L129.701,81.774L129.701,87.032C129.698,87.029 129.695,87.027 129.692,87.024C129.912,87.231 130.133,87.434 130.35,87.649C130.58,87.884 130.799,88.123 131.021,88.362C131.019,88.36 131.018,88.359 131.016,88.357L134.724,90.47L139.802,87.606L139.802,81.774L134.724,78.857Z" style="" fill="currentColor"/>
        <path d="M124.106,78.857L120.413,81.002C123.556,82.265 126.462,84.095 129.129,86.498L129.129,81.774L124.106,78.857Z" style="" fill="currentColor"/>
        <path d="M133.052,127.103C133.107,127.032 133.161,126.96 133.216,126.889C132.369,128.009 131.436,129.095 130.405,130.141L130.407,130.143L130.349,130.201C130.15,130.434 129.933,130.651 129.7,130.85L128.993,131.557L128.956,131.52C128.212,132.189 127.45,132.826 126.65,133.401C126.146,133.772 125.629,134.111 125.11,134.445C125.189,134.389 125.269,134.336 125.349,134.283L129.414,136.643L134.436,133.726L134.436,127.893L133.052,127.103Z" style="" fill="currentColor"/>
        <path d="M152.983,70.936L145.681,78.347L145.681,78.363L150.703,81.28L155.726,78.363L155.726,72.528L152.983,70.936Z" style="" fill="currentColor"/>
        <path d="M135.008,93.631L135.007,93.629L135.008,93.631Z" style="" fill="currentColor"/>
        <path d="M140.087,88.102L135.008,90.966L135.008,93.632C135.867,95.069 136.584,96.563 137.172,98.109C137.161,98.081 137.151,98.052 137.141,98.024L140.086,99.717L145.11,96.8L145.11,90.966L140.087,88.102Z" style="" fill="currentColor"/>
        <path d="M145.396,97.292L140.373,100.209L140.373,106.044L145.396,108.961L150.418,106.044L150.418,100.209L145.396,97.292Z" style="" fill="currentColor"/>
        <path d="M137.906,117.613C136.962,120.856 135.458,123.872 133.391,126.659C133.395,126.654 133.398,126.65 133.402,126.645L134.723,127.398L139.801,124.535L139.801,118.702L137.906,117.613Z" style="" fill="currentColor"/>
        <path d="M150.703,106.539L145.681,109.456L145.681,115.291L150.703,118.207L155.726,115.291L155.726,109.456L150.703,106.539Z" style="" fill="currentColor"/>
        <path d="M145.396,115.785L140.373,118.702L140.373,124.535L145.396,127.397L150.418,124.535L150.418,118.702L145.396,115.785Z" style="" fill="currentColor"/>
        <path d="M140.087,125.029L135.008,127.893L135.008,133.725L140.087,136.643L145.11,133.726L145.11,127.892L140.087,125.029Z" style="" fill="currentColor"/>
        <path d="M159.8,110C159.8,108.973 159.818,107.954 159.851,106.94C159.846,107.093 159.84,107.246 159.836,107.4L156.297,109.455L156.297,115.29L160.106,117.501C160.125,117.733 160.145,117.965 160.166,118.196L156.013,115.784L150.991,118.701L150.991,124.534L156.013,127.396L160.989,124.56C161.023,124.759 161.057,124.96 161.093,125.159L156.299,127.89L156.299,133.724L161.321,136.641L163.587,135.326C163.591,135.339 163.595,135.351 163.599,135.364C161.065,127.418 159.8,118.963 159.8,110Z" style="" fill="currentColor"/>
        <path d="M169.602,70.966L166.913,72.528L166.913,76.226C166.845,76.374 166.78,76.523 166.713,76.671C167.673,74.558 168.733,72.486 169.893,70.458C169.795,70.628 169.697,70.796 169.602,70.966ZM166.658,76.79C166.676,76.75 166.693,76.71 166.712,76.671C166.693,76.71 166.676,76.75 166.658,76.79ZM166.658,76.79C166.553,77.023 166.445,77.257 166.342,77.492L166.342,72.528L161.32,69.611L156.298,72.528L156.298,78.363L161.32,81.28L165.843,78.653C165.722,78.941 165.603,79.232 165.485,79.521L161.605,81.774L161.605,87.608L162.584,88.166C162.533,88.356 162.482,88.546 162.433,88.737L161.32,88.102L156.298,90.964L156.298,96.798L160.444,99.206C160.42,99.412 160.395,99.617 160.371,99.823L156.013,97.292L150.991,100.209L150.991,106.044L156.013,108.961L159.859,106.728C159.857,106.765 159.857,106.801 159.855,106.838C160.222,96.019 162.491,86.003 166.658,76.79Z" style="" fill="currentColor"/>
        <path d="M172.221,63.282L172.221,66.645C172.029,66.941 171.838,67.236 171.651,67.534L171.651,63.282L166.628,60.366L161.606,63.282L161.606,69.117L166.628,72.034L170.167,69.979C170.108,70.081 170.051,70.184 169.992,70.286C170.945,68.629 171.964,67.001 173.051,65.401L177.777,60.675L177.245,60.366L172.221,63.282Z" style="" fill="currentColor"/>
        <path d="M145.396,134.221L140.373,137.137L140.373,139.475L141.921,137.921L148.253,144.229L150.418,142.973L150.418,137.137L145.396,134.221Z" style="" fill="currentColor"/>
        <path d="M86.951,69.611L81.928,72.528L81.928,78.363L86.951,81.28L91.973,78.363L91.973,72.528L86.951,69.611Z" style="" fill="currentColor"/>
        <path d="M172.221,175.131L172.221,179.899L177.243,182.815L178.785,181.92L172.221,175.131Z" style="" fill="currentColor"/>
        <path d="M177.243,171.147L173.342,173.413L180.566,180.886L182.266,179.899L182.266,174.064L177.243,171.147Z" style="" fill="currentColor"/>
        <path d="M170.6,173.455L166.627,171.147L161.604,174.064L161.604,179.899L166.627,182.815L171.65,179.899L171.65,174.541L170.6,173.455Z" style="" fill="currentColor"/>
        <path d="M160.136,162.632L156.297,164.819L156.297,170.653L161.319,173.57L166.342,170.653L166.342,169.05L160.136,162.632Z" style="" fill="currentColor"/>
        <path d="M156.338,158.703L154.56,160.46L150.989,156.844L150.989,161.463L156.012,164.325L159.727,162.208L156.338,158.703Z" style="" fill="currentColor"/>
        <path d="M195.45,43C193.399,40.336 191.199,37.734 188.865,35.187L188.144,35.601L188.144,41.434L193.223,44.352L195.307,43.142L194.552,43.897L195.45,43Z" style="" fill="currentColor"/>
        <path d="M158.39,43.311L158.536,43.165L158.1,43.6C144.166,54.333 127.967,59.7 109.5,59.7C107.269,59.7 105.069,59.62 102.902,59.462C102.988,59.468 103.074,59.475 103.16,59.481L103.16,59.871L108.182,62.787L113.204,59.871L113.204,59.627C113.394,59.619 113.585,59.611 113.774,59.603L113.774,59.872L118.797,62.788L123.819,59.872L123.819,58.55C124.009,58.518 124.199,58.486 124.389,58.453L124.389,59.871L129.412,62.787L134.434,59.871L134.434,56.018C134.623,55.958 134.815,55.897 135.004,55.836L135.004,59.87L140.083,62.787L145.106,59.87L145.106,54.036L142.897,52.778C143.11,52.681 143.323,52.583 143.535,52.485L145.391,53.543L150.413,50.681L150.413,48.838C150.603,48.724 150.794,48.609 150.984,48.493L150.984,50.681L156.006,53.543L161.028,50.681L161.028,44.847L158.39,43.311Z" style="" fill="currentColor"/>
        <path d="M177.4,24.35L172.22,29.516L172.22,32.19L177.242,35.106L182.264,32.19L182.264,28.576C180.664,27.105 179.044,25.692 177.4,24.35Z" style="" fill="currentColor"/>
        <path d="M61.9,44.35L59.801,42.251L55.331,44.846L55.331,50.68L60.354,53.543L65.433,50.679L65.433,46.828C65.623,46.953 65.813,47.078 66.004,47.203L66.004,50.68L71.026,53.542L74.089,51.797C74.296,51.899 74.504,51.999 74.712,52.099L71.312,54.037L71.312,59.871L76.335,62.787L81.357,59.871L81.357,54.901C81.546,54.97 81.737,55.04 81.928,55.108L81.928,59.871L86.95,62.787L91.972,59.871L91.972,57.936C92.163,57.976 92.351,58.015 92.543,58.053L92.543,59.871L97.565,62.787L102.588,59.871L102.588,59.439C102.672,59.445 102.756,59.451 102.84,59.458C87.614,58.334 73.967,53.298 61.9,44.35Z" style="" fill="currentColor"/>
        <path d="M193.51,44.846L193.51,44.94L193.733,44.717L193.51,44.846Z" style="" fill="currentColor"/>
        <path d="M185.9,32.05C184.888,31.039 183.866,30.064 182.837,29.107L182.837,32.19L184.816,33.34L185.902,32.283L187.297,33.717L186.613,34.383L187.859,35.107L188.474,34.753C187.635,33.844 186.777,32.943 185.9,32.05Z" style="" fill="currentColor"/>
        <path d="M108.183,143.467L103.16,146.383L103.16,152.219L108.183,155.135L113.205,152.219L113.205,146.383L108.183,143.467Z" style="" fill="currentColor"/>
        <path d="M109.1,139C108.759,139 108.429,138.974 108.092,138.964C108.217,138.969 108.342,138.975 108.468,138.978L108.468,142.973L113.49,145.889L118.512,142.973L118.512,137.582C118.528,137.577 118.542,137.57 118.558,137.565C115.605,138.52 112.453,139 109.1,139Z" style="" fill="currentColor"/>
        <path d="M118.799,143.467L113.775,146.383L113.775,152.219L118.799,155.135L123.821,152.219L123.821,146.383L118.799,143.467Z" style="" fill="currentColor"/>
        <path d="M98.096,136.994L97.852,137.137L97.852,142.973L102.875,145.889L107.897,142.973L107.897,138.957C104.402,138.835 101.133,138.185 98.096,136.994Z" style="" fill="currentColor"/>
        <path d="M134.724,152.712L129.7,155.629L129.7,161.463L134.724,164.326L139.802,161.462L139.802,155.63L134.724,152.712Z" style="" fill="currentColor"/>
        <path d="M138.489,144.384L135.008,146.384L135.008,152.218L140.087,155.135L145.11,152.219L145.11,150.98L138.489,144.384Z" style="" fill="currentColor"/>
        <path d="M124.824,134.638C123.007,135.778 121.09,136.681 119.084,137.373L119.084,142.973L124.106,145.889L129.128,142.973L129.128,137.137L124.824,134.638Z" style="" fill="currentColor"/>
        <path d="M148.88,154.736L145.396,152.713L140.373,155.629L140.373,161.463L145.396,164.325L150.418,161.463L150.418,156.269L148.88,154.736Z" style="" fill="currentColor"/>
        <path d="M129.415,143.467L124.392,146.383L124.392,152.219L129.415,155.135L134.438,152.219L134.438,146.383L129.415,143.467Z" style="" fill="currentColor"/>
        <path d="M52.001,34.452L50.023,35.6L50.023,41.436L55.045,44.352L59.383,41.833L52.001,34.452Z" style="" fill="currentColor"/>
        <path d="M161.319,180.395L161.208,180.458L166.342,185.592L166.342,183.311L161.319,180.395Z" style="" fill="currentColor"/>
        <path d="M156.012,171.147L152.324,173.29C152.143,173.175 151.961,173.06 151.779,172.945L155.726,170.653L155.726,164.819L150.704,161.957L145.682,164.819L145.682,169.504C145.493,169.408 145.302,169.313 145.112,169.219L145.112,164.82L140.089,161.958L135.01,164.821L135.01,165.114C134.821,165.053 134.629,164.992 134.44,164.932L134.44,164.82L129.418,161.958L127.437,163.087C127.157,163.027 126.874,162.969 126.593,162.911L129.132,161.464L129.132,155.63L124.11,152.714L119.088,155.63L119.088,161.464L119.721,161.825C119.71,161.824 119.699,161.823 119.688,161.821C133.987,163.461 146.792,168.636 158.104,177.35L160.795,180.041L161.038,179.899L161.038,174.064L156.012,171.147Z" style="" fill="currentColor"/>
        <path d="M118.168,161.66L118.513,161.463L118.513,155.629L113.491,152.713L108.469,155.629L108.469,161.256C108.279,161.258 108.089,161.261 107.899,161.264L107.899,155.629L102.877,152.713L97.854,155.629L97.854,161.463L98.63,161.905C98.316,161.944 98.003,161.984 97.691,162.026L97.569,161.957L97.371,162.07C97.126,162.104 96.883,162.143 96.639,162.179C100.805,161.562 105.092,161.249 109.503,161.249C112.936,161.249 116.289,161.436 119.565,161.807C119.099,161.755 118.634,161.705 118.168,161.66Z" style="" fill="currentColor"/>
        <path d="M67.759,172.57C68.174,172.318 68.591,172.071 69.009,171.828C68.591,172.071 68.174,172.318 67.759,172.57Z" style="" fill="currentColor"/>
        <path d="M65.4,174.046L60.355,171.148L55.332,174.065L55.332,179.9L57.313,181.05L56.896,181.468L55.046,180.395L50.024,183.311L50.024,188.359L49.698,188.686L61.8,176.55C63.233,175.496 64.693,174.51 66.169,173.566C65.914,173.729 65.654,173.879 65.4,174.046Z" style="" fill="currentColor"/>
        <path d="M182.551,180.395L180.976,181.309L185.419,185.905L183.981,187.296L179.194,182.345L177.528,183.312L177.528,189.148L180.462,190.851C181.506,189.911 182.538,188.95 183.55,187.952C184.416,187.252 185.2,186.485 185.901,185.652C186.468,185.078 187.022,184.5 187.574,183.921L187.574,183.313L182.551,180.395Z" style="" fill="currentColor"/>
        <path d="M193.51,176.161L193.51,177.236C193.672,177.041 193.84,176.846 194,176.65L193.51,176.161Z" style="" fill="currentColor"/>
        <path d="M39.122,189.641L37.642,190.5C39.46,192.126 41.325,193.685 43.25,195.15L44.145,194.254L44.145,192.557L39.122,189.641Z" style="" fill="currentColor"/>
        <path d="M177.243,189.641L172.907,192.158L175.65,194.901C177.136,193.741 178.59,192.521 180.018,191.252L177.243,189.641Z" style="" fill="currentColor"/>
        <path d="M97.566,143.467L92.544,146.383L92.544,152.219L97.566,155.135L102.589,152.219L102.589,146.383L97.566,143.467Z" style="" fill="currentColor"/>
        <path d="M171.936,180.395L166.912,183.311L166.912,186.162L172.49,191.74L176.958,189.146L176.958,183.311L171.936,180.395Z" style="" fill="currentColor"/>
        <path d="M41.55,24C41.506,24.036 41.462,24.074 41.418,24.11L41.998,24.447L41.55,24Z" style="" fill="currentColor"/>
        <path d="M43.57,26.021L40.951,24.5C38.629,26.417 36.345,28.439 34.099,30.568L34.099,32.19L39.121,35.106L44.143,32.19L44.143,26.595L43.57,26.021Z" style="" fill="currentColor"/>
        <path d="M44.715,27.166L44.715,32.19L49.738,35.106L51.584,34.034L44.715,27.166Z" style="" fill="currentColor"/>
        <path d="M32.55,32.05C32.014,32.586 31.495,33.131 30.972,33.674L31.342,33.459L32.406,32.392L32.691,32.676L33.529,32.19L33.529,31.114C33.203,31.426 32.875,31.733 32.55,32.05Z" style="" fill="currentColor"/>
        <path d="M29.823,171.913L24.7,177.05C26.179,178.834 27.736,180.59 29.352,182.324L33.528,179.899L33.528,174.064L29.823,171.913Z" style="" fill="currentColor"/>
        <path d="M37.988,182.818L33.862,186.952C34.952,188.033 36.068,189.075 37.197,190.098L38.837,189.147L38.837,183.311L37.988,182.818Z" style="" fill="currentColor"/>
        <path d="M33.814,180.395L29.752,182.752C30.632,183.689 31.524,184.62 32.444,185.542L36.199,181.779L33.814,180.395Z" style="" fill="currentColor"/>
        <path d="M30.321,34.344C30.187,34.485 30.053,34.626 29.921,34.767C30.054,34.625 30.188,34.485 30.321,34.344Z" style="" fill="currentColor"/>
        <path d="M28.22,36.623C26.507,38.526 24.861,40.466 23.3,42.45L24.582,43.729L24.467,43.614L28.22,41.435L28.22,36.623Z" style="" fill="currentColor"/>
        <path d="M71.026,60.366L66.188,63.175L73.583,70.549L76.049,69.117L76.049,63.282L71.026,60.366Z" style="" fill="currentColor"/>
        <path d="M55.045,161.957L50.023,164.819L50.023,167.931L55.645,162.299L55.045,161.957Z" style="" fill="currentColor"/>
        <path d="M46.365,154.153C46.339,154.194 46.313,154.234 46.287,154.274C46.313,154.234 46.339,154.194 46.365,154.153ZM55.045,136.643L60.068,133.726L60.068,127.892L57.444,126.397C57.453,126.348 57.462,126.299 57.471,126.251C55.581,136.267 51.878,145.567 46.364,154.154C46.413,154.078 46.464,154.002 46.512,153.925L49.451,152.219L49.451,148.926C49.644,148.569 49.835,148.209 50.022,147.849L50.022,152.219L55.044,155.135L60.067,152.219L60.067,146.383L55.044,143.467L51.059,145.781C51.205,145.478 51.35,145.174 51.492,144.869L54.76,142.973L54.76,137.137L54.634,137.064C54.697,136.879 54.758,136.697 54.82,136.512L55.045,136.643ZM38.019,163.696L39.123,164.325L44.145,161.463L44.145,157.439C44.337,157.169 44.527,156.899 44.716,156.627L44.716,161.463L49.738,164.325L54.76,161.463L54.76,155.629L49.738,152.713L45.827,154.984C45.982,154.748 46.134,154.511 46.286,154.275C45.509,155.481 44.698,156.672 43.849,157.85L38.019,163.696Z" style="" fill="currentColor"/>
        <path d="M39.407,58.519L38.896,58.008L39.407,58.519Z" style="" fill="currentColor"/>
        <path d="M44.43,51.175L39.407,54.037L39.407,58.519L42.65,61.754L44.43,62.787L49.452,59.871L49.452,54.037L44.43,51.175Z" style="" fill="currentColor"/>
        <path d="M50.818,53.583L50.023,54.037L50.023,59.871L55.045,62.787L58.206,60.953L50.818,53.583Z" style="" fill="currentColor"/>
        <path d="M56.929,63.829L59.003,61.748L58.624,61.37L55.331,63.282L55.331,69.117L60.354,72.034L63.402,70.283L56.929,63.829Z" style="" fill="currentColor"/>
        <path d="M71.312,78.17L71.312,78.363L71.776,78.633L71.312,78.17Z" style="" fill="currentColor"/>
        <path d="M92.258,134.221L87.236,137.137L87.236,142.973L92.258,145.889L97.281,142.973L97.281,137.137L92.258,134.221Z" style="" fill="currentColor"/>
        <path d="M81.643,152.713L76.62,155.629L76.62,161.463L81.643,164.325L86.665,161.463L86.665,155.629L81.643,152.713Z" style="" fill="currentColor"/>
        <path d="M86.951,143.467L81.928,146.383L81.928,152.219L86.951,155.135L91.973,152.219L91.973,146.383L86.951,143.467Z" style="" fill="currentColor"/>
        <path d="M78.793,144.895L71.588,152.379L76.335,155.135L81.357,152.219L81.357,146.383L78.793,144.895Z" style="" fill="currentColor"/>
        <path d="M71.18,152.803L66.004,158.18L66.004,161.463L71.026,164.325L76.049,161.463L76.049,155.629L71.18,152.803Z" style="" fill="currentColor"/>
        <path d="M65.718,143.466L60.639,146.384L60.639,152.218L61.532,152.73L68.754,145.229L65.718,143.466Z" style="" fill="currentColor"/>
        <path d="M60.354,134.22L55.331,137.137L55.331,142.973L60.354,145.89L65.433,142.972L65.433,137.138L60.354,134.22Z" style="" fill="currentColor"/>
        <path d="M60.354,115.784L58.706,116.742C58.708,116.714 58.71,116.685 58.712,116.657C58.476,119.91 58.066,123.094 57.48,126.209C57.505,126.074 57.531,125.938 57.556,125.803L60.355,127.399L65.434,124.536L65.434,118.703L60.354,115.784Z" style="" fill="currentColor"/>
        <path d="M81.643,134.221L76.62,137.137L76.62,140.844L79.771,143.878L79.201,144.471L81.643,145.889L86.665,142.973L86.665,137.137L81.643,134.221Z" style="" fill="currentColor"/>
        <path d="M92.258,78.857L87.236,81.774L87.236,87.608L87.659,87.849C87.723,87.783 87.784,87.715 87.85,87.65C90.563,84.968 93.529,82.91 96.742,81.462L92.258,78.857Z" style="" fill="currentColor"/>
        <path d="M79.983,116.749L76.62,118.702L76.62,124.535L81.642,127.397L84.235,125.919C82.251,123.099 80.826,120.044 79.982,116.746C79.982,116.747 79.983,116.748 79.983,116.749ZM84.235,125.92C84.303,126.019 84.377,126.114 84.447,126.212C84.379,126.113 84.311,126.014 84.242,125.916L84.235,125.92ZM91.6,133.4C90.267,132.466 89.017,131.4 87.85,130.2C86.572,128.931 85.448,127.597 84.448,126.212C84.489,126.271 84.528,126.329 84.57,126.387L81.929,127.892L81.929,133.726L86.951,136.643L91.973,133.726L91.973,133.655C91.85,133.566 91.722,133.491 91.6,133.4Z" style="" fill="currentColor"/>
        <path d="M81.643,78.857L76.62,81.774L76.62,87.608L81.643,90.47L86.665,87.608L86.665,81.774L81.643,78.857Z" style="" fill="currentColor"/>
        <path d="M97.281,155.629L92.259,152.713L87.237,155.629L87.237,161.463L90.508,163.327C90.423,163.347 90.338,163.367 90.253,163.387C92.227,162.929 94.231,162.546 96.264,162.236C96.113,162.258 95.961,162.28 95.81,162.303L97.283,161.463L97.283,155.629L97.281,155.629Z" style="" fill="currentColor"/>
        <path d="M76.335,88.102L71.312,90.964L71.312,96.798L76.335,99.715L81.357,96.798L81.357,90.964L76.335,88.102Z" style="" fill="currentColor"/>
        <path d="M86.951,88.102L81.929,90.964L81.929,95.876C83.244,93.156 85.019,90.622 87.252,88.273L86.951,88.102Z" style="" fill="currentColor"/>
        <path d="M49.738,171.147L49.498,171.287L44.715,176.078L44.715,179.899L49.738,182.815L54.76,179.899L54.76,174.064L49.738,171.147Z" style="" fill="currentColor"/>
        <path d="M39.122,171.147L34.1,174.064L34.1,179.899L36.617,181.361L43.99,173.975L39.122,171.147Z" style="" fill="currentColor"/>
        <path d="M38.406,182.399L39.122,182.815L44.145,179.899L44.145,176.65L38.406,182.399Z" style="" fill="currentColor"/>
        <path d="M32.688,51.816L32.383,51.512L32.688,51.816Z" style="" fill="currentColor"/>
        <path d="M33.529,50.68L33.529,44.846L28.506,41.93L24.886,44.032L32.383,51.512L32.269,51.398L33.529,50.68Z" style="" fill="currentColor"/>
        <path d="M38.836,54.037L33.814,51.175L32.688,51.816L38.836,57.95L38.836,54.037Z" style="" fill="currentColor"/>
        <path d="M37.601,164.115L30.24,171.495L33.814,173.57L38.836,170.653L38.836,164.819L37.601,164.115Z" style="" fill="currentColor"/>
        <path d="M57.445,163.324L50.091,170.692L55.045,173.57L60.068,170.653L60.068,164.819L57.445,163.324Z" style="" fill="currentColor"/>
        <path d="M65.718,161.957L60.639,164.82L60.639,170.652L65.718,173.57L70.741,170.653L70.741,164.819L65.718,161.957Z" style="" fill="currentColor"/>
        <path d="M89.689,163.519L86.95,161.957L81.928,164.819L81.928,165.816C81.737,165.883 81.548,165.952 81.357,166.021L81.357,164.819L76.335,161.957L71.312,164.819L71.312,170.523C71.084,170.646 70.861,170.782 70.634,170.907C76.772,167.526 83.26,165.023 90.108,163.421C89.968,163.453 89.829,163.485 89.689,163.519Z" style="" fill="currentColor"/>
        <path d="M63.021,161.277L60.5,158.85L61.208,159.556L57.863,162.906L60.354,164.326L65.433,161.462L65.433,158.772L63.021,161.277Z" style="" fill="currentColor"/>
        <path d="M81.643,60.366L76.62,63.282L76.62,69.117L81.643,72.034L86.665,69.117L86.665,63.282L81.643,60.366Z" style="" fill="currentColor"/>
        <path d="M76.335,69.611L74.001,70.966L79.071,76.021L74.748,80.358L76.335,81.28L81.357,78.363L81.357,72.528L76.335,69.611Z" style="" fill="currentColor"/>
        <path d="M92.258,60.366L87.236,63.282L87.236,69.117L92.258,72.034L97.281,69.117L97.281,63.282L92.258,60.366Z" style="" fill="currentColor"/>
        <path d="M96.715,136.402C96.582,136.341 96.449,136.28 96.317,136.217C96.449,136.28 96.582,136.342 96.715,136.402Z" style="" fill="currentColor"/>
        <path d="M95.012,135.559C94.913,135.505 94.817,135.448 94.72,135.393C94.817,135.447 94.914,135.505 95.012,135.559Z" style="" fill="currentColor"/>
        <path d="M44.43,32.684L39.407,35.6L39.407,39.376L44.348,44.305L44.43,44.352L49.452,41.436L49.452,35.6L44.43,32.684Z" style="" fill="currentColor"/>
        <path d="M33.814,32.684L33.109,33.093L38.836,38.807L38.836,35.6L33.814,32.684Z" style="" fill="currentColor"/>
        <path d="M49.738,41.93L44.826,44.782L52.201,52.139L54.76,50.68L54.76,44.846L49.738,41.93Z" style="" fill="currentColor"/>
        <path d="M55.045,51.175L52.621,52.557L59.996,59.914L60.068,59.871L60.068,54.037L55.045,51.175Z" style="" fill="currentColor"/>
        <path d="M60.354,97.292L58.216,98.533C58.189,98.329 58.162,98.124 58.133,97.921L60.067,96.798L60.067,90.964L56.331,88.835C56.276,88.625 56.22,88.416 56.164,88.206C58.02,95.092 58.95,102.356 58.95,109.999C58.95,112.229 58.871,114.429 58.716,116.598C58.729,116.416 58.742,116.235 58.754,116.053L60.068,115.29L60.068,109.455L58.942,108.801C58.939,108.579 58.936,108.356 58.931,108.134L60.354,108.96L65.433,106.043L65.433,100.209L60.354,97.292Z" style="" fill="currentColor"/>
    </g>
</svg>
